<?xml version="1.0" encoding="UTF-8"?>
<svg xmlns="http://www.w3.org/2000/svg" xmlns:xlink="http://www.w3.org/1999/xlink" width="512pt" height="512pt" viewBox="0 0 512 512" version="1.1">
<defs>
<filter id="alpha" filterUnits="objectBoundingBox" x="0%" y="0%" width="100%" height="100%">
  <feColorMatrix type="matrix" in="SourceGraphic" values="0 0 0 0 1 0 0 0 0 1 0 0 0 0 1 0 0 0 1 0"/>
</filter>
<mask id="mask0">
  <g filter="url(#alpha)">
<rect x="0" y="0" width="512" height="512" style="fill:rgb(0%,0%,0%);fill-opacity:0.501961;stroke:none;"/>
  </g>
</mask>
<linearGradient id="linear0" gradientUnits="userSpaceOnUse" x1="-16.3" y1="16.071" x2="1354.901" y2="16.071" gradientTransform="matrix(1,0,0,-1,16.8,702.696)">
<stop offset="0.117" style="stop-color:rgb(100%,100%,100%);stop-opacity:0;"/>
<stop offset="0.252" style="stop-color:rgb(75.294118%,81.960784%,82.745098%);stop-opacity:0.152941;"/>
<stop offset="0.387" style="stop-color:rgb(56.862745%,70.196078%,71.764706%);stop-opacity:0.305882;"/>
<stop offset="0.52" style="stop-color:rgb(42.745098%,62.352941%,63.921569%);stop-opacity:0.458824;"/>
<stop offset="0.65" style="stop-color:rgb(30.196078%,56.862745%,58.431373%);stop-opacity:0.603922;"/>
<stop offset="0.776" style="stop-color:rgb(18.823529%,53.333333%,54.509804%);stop-opacity:0.745098;"/>
<stop offset="0.895" style="stop-color:rgb(7.843137%,51.372549%,52.54902%);stop-opacity:0.882353;"/>
<stop offset="1" style="stop-color:rgb(0%,50.588235%,51.764706%);stop-opacity:1;"/>
</linearGradient>
<linearGradient id="linear1" gradientUnits="userSpaceOnUse" x1="-16.8" y1="16.071" x2="1355.401" y2="16.071" gradientTransform="matrix(1,0,0,-1,16.8,702.696)">
<stop offset="0" style="stop-color:rgb(100%,100%,100%);stop-opacity:0;"/>
<stop offset="0.153" style="stop-color:rgb(75.294118%,81.960784%,82.745098%);stop-opacity:0.152941;"/>
<stop offset="0.306" style="stop-color:rgb(56.862745%,70.196078%,71.764706%);stop-opacity:0.305882;"/>
<stop offset="0.457" style="stop-color:rgb(42.745098%,62.352941%,63.921569%);stop-opacity:0.458824;"/>
<stop offset="0.604" style="stop-color:rgb(30.196078%,56.862745%,58.431373%);stop-opacity:0.603922;"/>
<stop offset="0.746" style="stop-color:rgb(18.823529%,53.333333%,54.509804%);stop-opacity:0.745098;"/>
<stop offset="0.881" style="stop-color:rgb(7.843137%,51.372549%,52.54902%);stop-opacity:0.882353;"/>
<stop offset="1" style="stop-color:rgb(0%,50.588235%,51.764706%);stop-opacity:1;"/>
</linearGradient>
<clipPath id="clip1">
  <rect width="512" height="512"/>
</clipPath>
<g id="surface6" clip-path="url(#clip1)">
<path style="fill-rule:nonzero;fill:url(#linear0);stroke-width:1;stroke-linecap:butt;stroke-linejoin:miter;stroke:url(#linear1);stroke-miterlimit:10;" d="M 1371.698485 686.593358 C 1371.698485 1065.243315 1064.724625 1372.203861 686.152845 1372.203861 C 307.455436 1372.203861 0.502515 1065.232841 0.502515 686.593358 C 0.502515 308.016714 307.455436 1.045695 686.152845 1.045695 C 1064.745564 1.066641 1371.698485 308.016714 1371.698485 686.593358 Z M 1371.698485 686.593358 " transform="matrix(0.373123,0,0,0.372974,0,0.0123268)"/>
</g>
</defs>
<g id="surface1">
<path style="fill-rule:nonzero;fill:rgb(0%,59.215686%,61.568627%);fill-opacity:1;stroke-width:0.932;stroke-linecap:butt;stroke-linejoin:miter;stroke:rgb(50.588235%,78.823529%,79.607843%);stroke-opacity:1;stroke-miterlimit:10;" d="M 1371.698485 686.027802 C 1371.698485 1064.677759 1064.724625 1371.627832 686.152845 1371.627832 C 307.455436 1371.627832 0.502515 1064.677759 0.502515 686.027802 C 0.502515 307.451159 307.455436 0.480139 686.152845 0.480139 C 1064.745564 0.480139 1371.698485 307.451159 1371.698485 686.027802 Z M 1371.698485 686.027802 " transform="matrix(0.373123,0,0,0.372974,0,0.0123268)"/>
<use xlink:href="#surface6" mask="url(#mask0)"/>
<path style=" stroke:none;fill-rule:nonzero;fill:rgb(100%,100%,100%);fill-opacity:1;" d="M 353.707031 347.324219 C 348.890625 347.324219 343.957031 346.976562 339.105469 346.257812 C 298.445312 340.453125 271.253906 311.261719 256.023438 288.820312 C 240.746094 311.261719 213.558594 340.484375 172.914062 346.277344 C 168.078125 346.96875 163.199219 347.316406 158.3125 347.316406 C 133.035156 347.316406 109.300781 337.910156 91.449219 320.832031 C 73.429688 303.613281 63.484375 280.507812 63.484375 255.871094 C 63.484375 231.203125 73.429688 208.128906 91.476562 190.878906 C 109.308594 173.800781 133.058594 164.421875 158.351562 164.421875 C 163.171875 164.421875 168.078125 164.769531 172.910156 165.460938 C 213.558594 171.253906 240.742188 200.449219 256.023438 222.894531 C 271.253906 200.449219 298.441406 171.265625 339.101562 165.460938 C 343.953125 164.765625 348.859375 164.421875 353.675781 164.421875 C 378.957031 164.421875 402.707031 173.824219 420.539062 190.878906 C 438.578125 208.128906 448.5 231.203125 448.5 255.871094 C 448.5 280.507812 438.605469 303.613281 420.566406 320.832031 C 402.699219 337.910156 378.988281 347.324219 353.707031 347.324219 M 274.027344 255.882812 C 281.96875 271 305.394531 308.722656 343.6875 314.207031 C 347.039062 314.667969 350.414062 314.921875 353.703125 314.921875 C 388.097656 314.921875 416.097656 288.441406 416.097656 255.871094 C 416.097656 223.304688 388.105469 196.824219 353.679688 196.824219 C 350.390625 196.824219 347.015625 197.058594 343.695312 197.539062 C 305.398438 203.007812 281.96875 240.730469 274.027344 255.882812 M 158.351562 196.832031 C 123.910156 196.832031 95.90625 223.3125 95.90625 255.882812 C 95.90625 288.445312 123.898438 314.929688 158.308594 314.929688 C 161.609375 314.929688 164.984375 314.675781 168.335938 314.214844 C 206.628906 308.734375 230.050781 271.03125 237.996094 255.890625 C 230.070312 240.773438 206.628906 203.015625 168.335938 197.566406 C 165.023438 197.066406 161.640625 196.832031 158.351562 196.832031 "/>
<path style=" stroke:none;fill-rule:nonzero;fill:rgb(100%,100%,100%);fill-opacity:1;" d="M 132.222656 246.941406 L 189.171875 246.941406 L 189.171875 265.285156 L 132.222656 265.285156 Z M 379.273438 246.941406 L 359.992188 246.941406 L 359.992188 227.640625 L 341.582031 227.640625 L 341.582031 246.941406 L 322.308594 246.941406 L 322.308594 265.285156 L 341.582031 265.285156 L 341.582031 284.578125 L 359.992188 284.578125 L 359.992188 265.285156 L 379.273438 265.285156 Z M 379.273438 246.941406 "/>
</g>
</svg>
